<!DOCTYPE svg PUBLIC "-//W3C//DTD SVG 20010904//EN" "http://www.w3.org/TR/2001/REC-SVG-20010904/DTD/svg10.dtd">
<svg version="1.0" xmlns="http://www.w3.org/2000/svg" width="955px" height="548px" viewBox="0 0 9550 5480" preserveAspectRatio="xMidYMid meet">
<g id="layer101" fill="#000000" stroke="none">
 <path d="M1829 5146 c-129 -45 -288 -153 -466 -317 -103 -95 -267 -266 -358 -375 -28 -32 -56 -65 -63 -73 -7 -7 -57 -73 -112 -146 -199 -266 -333 -493 -413 -700 -50 -130 -98 -285 -92 -296 4 -5 -1 -9 -9 -9 -9 0 -16 -4 -16 -10 0 -5 5 -10 10 -10 11 0 2 -81 -10 -90 -3 -3 -6 -57 -5 -120 1 -103 5 -124 34 -205 78 -216 192 -393 384 -599 369 -397 814 -675 1447 -904 392 -142 912 -272 1086 -272 108 0 112 2 196 139 63 104 118 231 125 293 10 87 1 96 -180 178 -258 116 -513 243 -627 311 -388 231 -602 476 -642 732 -9 59 -8 101 2 196 7 67 16 118 20 114 14 -16 72 -190 86 -258 18 -91 34 -136 43 -130 5 2 20 -26 34 -63 49 -129 85 -227 102 -280 9 -28 20 -50 25 -47 7 4 22 61 24 92 2 23 10 19 81 -39 92 -73 221 -154 370 -230 l119 -61 38 44 c92 106 208 308 271 474 67 172 113 416 100 528 l-6 47 98 0 98 0 -19 -21 c-18 -20 -19 -45 -19 -586 l0 -565 28 -24 28 -24 369 0 369 0 20 26 c29 37 28 95 -3 131 l-24 28 -286 3 -286 3 0 165 0 164 268 0 c147 0 272 4 278 8 46 30 43 146 -5 169 -9 4 -134 9 -278 11 l-263 3 0 170 0 169 145 0 c139 0 145 -1 157 -22 7 -13 13 -26 14 -30 1 -5 3 -10 4 -13 4 -8 7 -24 9 -40 1 -9 11 -15 26 -15 18 0 25 5 25 20 0 11 5 20 10 20 6 0 10 16 8 38 l-3 37 87 3 c102 3 92 18 109 -158 6 -69 16 -130 20 -136 5 -6 6 -25 3 -43 -4 -18 -2 -37 5 -45 6 -7 8 -26 5 -45 -4 -18 -2 -37 5 -45 7 -9 9 -29 5 -55 -5 -29 -3 -41 5 -41 9 0 10 -13 6 -44 -4 -27 -3 -46 4 -50 6 -4 8 -24 5 -50 -4 -27 -2 -46 5 -50 6 -4 8 -18 5 -31 -8 -32 21 -63 45 -48 10 7 15 21 13 38 -2 15 1 32 6 38 6 7 18 92 28 189 10 98 22 178 27 178 4 0 5 20 1 45 -4 33 -3 45 6 45 9 0 11 11 6 40 -4 25 -2 40 4 40 7 0 10 -130 10 -379 l0 -379 26 -31 c24 -29 31 -31 87 -31 65 1 86 10 105 47 9 16 12 157 12 507 l0 486 280 0 c267 0 281 1 300 20 26 26 28 114 3 142 -15 17 -12 18 97 18 l113 0 -19 -21 c-18 -20 -19 -45 -19 -586 l0 -565 28 -24 28 -24 369 0 369 0 20 26 c29 37 28 95 -3 131 l-24 28 -286 3 -286 3 0 165 0 164 268 0 c147 0 272 4 278 8 46 30 43 146 -5 169 -9 4 -134 9 -278 11 l-263 3 0 170 0 169 219 0 219 0 18 -42 c9 -24 18 -50 18 -58 1 -23 45 -25 52 -3 3 10 10 28 16 39 6 12 7 31 3 43 -5 17 -2 21 14 21 29 0 61 46 61 91 0 25 -8 47 -25 67 -26 31 -32 52 -15 52 6 0 10 7 10 15 0 24 61 6 93 -27 24 -25 34 -28 92 -28 l65 0 -10 -26 c-15 -39 -13 -1129 2 -1157 19 -36 40 -46 94 -47 48 0 54 3 90 42 22 24 172 216 334 427 l295 383 5 -407 5 -407 24 -19 c36 -30 124 -27 156 6 l25 24 0 571 c0 375 -4 578 -10 591 -10 18 -6 19 96 19 97 0 106 -1 99 -17 -23 -54 -17 -69 229 -614 184 -407 254 -551 276 -571 25 -23 40 -28 81 -28 66 0 104 21 130 71 41 82 479 1050 485 1074 3 14 1 38 -4 55 l-11 30 180 0 c172 0 179 1 179 20 0 20 -7 20 -1440 20 -916 0 -1440 4 -1440 10 0 6 131 10 339 12 316 3 340 4 360 22 29 26 36 75 18 119 -23 53 -49 57 -384 57 l-293 0 0 185 0 185 285 0 c350 0 355 1 355 104 0 33 -6 48 -26 67 l-26 24 -294 3 -294 3 0 199 0 199 319 3 c296 3 320 4 340 22 29 26 36 75 18 119 -24 56 -45 59 -470 55 -400 -3 -400 -3 -429 -57 -17 -32 -19 -1230 -2 -1252 6 -8 14 -30 18 -50 8 -43 -1 -49 -74 -49 -43 0 -67 11 -69 33 -3 26 -33 77 -46 77 -9 0 -24 -13 -33 -30 -9 -16 -20 -30 -25 -30 -4 0 -12 -11 -17 -25 -8 -20 -16 -25 -44 -25 -19 0 -38 5 -41 10 -4 6 -174 10 -478 10 -457 0 -473 1 -484 19 -10 16 -9 27 2 55 12 28 15 86 15 271 l0 235 355 0 354 0 3 -256 3 -256 28 -23 c35 -31 83 -40 135 -25 75 20 72 -10 72 688 0 610 0 620 -21 645 -46 59 -162 56 -199 -6 -18 -30 -20 -52 -20 -294 l0 -263 -354 0 -355 0 -3 264 c-3 250 -4 266 -24 293 -45 61 -163 64 -202 6 -16 -25 -17 -76 -20 -628 -3 -674 -4 -667 60 -698 33 -16 36 -21 24 -33 -17 -16 -86 -19 -86 -4 0 6 -9 29 -19 53 -11 23 -37 90 -58 149 -32 91 -41 108 -59 108 -26 0 -28 -7 -45 -167 -7 -68 -17 -123 -22 -123 -6 0 -7 -19 -4 -45 4 -25 3 -45 -2 -45 -8 0 -35 -248 -45 -415 -1 -22 -6 -48 -10 -58 -5 -9 -6 -27 -3 -38 3 -12 2 -29 -3 -38 -5 -9 -13 -60 -19 -115 -5 -54 -13 -101 -16 -104 -11 -11 -16 7 -22 74 -3 38 -10 71 -15 72 -5 2 -6 19 -2 38 4 21 2 40 -5 48 -7 8 -9 25 -5 41 4 15 2 36 -4 48 -15 32 -42 334 -35 389 4 36 1 54 -12 75 -11 16 -19 48 -20 79 l-1 52 45 22 c82 38 111 73 111 130 0 43 -47 90 -90 90 -17 0 -44 -7 -59 -15 -28 -14 -29 -14 -35 17 -3 17 -6 48 -6 69 0 22 -4 39 -9 39 -6 0 -7 16 -4 35 3 21 1 41 -7 50 -7 8 -10 21 -7 29 3 7 0 19 -6 25 -19 19 -46 13 -52 -11 -11 -50 -36 -280 -31 -285 3 -3 -2 -13 -11 -22 -13 -12 -41 -17 -120 -19 -160 -6 -254 33 -294 122 -23 52 -24 90 0 142 32 70 66 84 363 148 183 40 271 78 338 145 63 63 84 126 78 235 -12 210 -171 345 -441 375 -175 20 -384 -15 -520 -86 -93 -49 -120 -109 -82 -182 27 -54 64 -54 176 -2 191 89 458 97 565 16 70 -53 84 -158 29 -215 -40 -42 -103 -65 -270 -99 -83 -18 -175 -38 -205 -47 -123 -36 -213 -102 -257 -192 -25 -51 -28 -68 -28 -157 0 -90 3 -106 28 -158 54 -108 169 -196 302 -229 62 -15 58 -12 50 -37 -5 -17 -15 -21 -45 -21 -21 0 -42 5 -45 10 -4 6 -85 10 -209 10 l-204 0 -5 38 c-2 20 0 43 6 50 5 6 6 12 1 12 -5 0 -9 21 -10 48 -3 137 -136 539 -273 823 -290 603 -629 984 -960 1083 -86 25 -278 21 -362 -8z m97 -942 c201 -240 306 -556 317 -957 l3 -118 -18 61 c-16 51 -22 60 -42 60 -23 0 -23 3 -29 128 -13 289 -117 597 -288 855 -38 57 -38 58 -10 38 16 -11 46 -42 67 -67z m2389 -776 c7 -46 5 -54 -15 -70 -33 -27 -37 -23 -29 35 3 28 5 55 2 60 -6 11 6 27 22 27 8 0 16 -19 20 -52z m390 -168 c4 -16 10 -30 15 -30 4 0 8 -12 8 -26 0 -15 4 -29 10 -33 9 -5 35 -82 29 -86 -8 -6 -113 -22 -119 -18 -12 6 -10 41 2 48 6 4 10 23 10 43 -1 109 29 176 45 102z m-359 -132 c-3 -13 -6 -30 -6 -38 0 -12 -11 -14 -55 -12 -53 4 -64 13 -47 38 4 6 25 16 47 22 62 16 68 15 61 -10z m-1329 -111 c-23 -49 -120 -164 -103 -122 5 11 12 34 16 51 4 17 26 54 48 83 22 28 44 61 49 74 7 21 8 21 11 -6 2 -15 -8 -51 -21 -80z m1011 80 c3 -14 -4 -17 -34 -17 -37 0 -37 0 -19 20 22 24 48 22 53 -3z m165 3 c-5 -17 -14 -20 -70 -20 -76 0 -84 21 -12 31 84 11 88 11 82 -11z m817 0 c10 -18 8 -20 -30 -20 -42 0 -52 12 -22 29 26 16 40 13 52 -9z m1166 6 c21 -21 18 -26 -16 -26 -28 0 -30 2 -20 20 13 24 17 24 36 6z m1042 -393 c-149 -192 -292 -374 -317 -407 l-46 -59 -5 390 c-4 310 -8 393 -19 406 -12 16 11 17 322 17 l336 0 -271 -347z m1622 295 c-15 -29 -42 -90 -61 -135 l-34 -83 -298 3 -298 2 -38 90 c-21 50 -48 109 -60 133 l-21 42 419 0 419 0 -28 -52z m-6030 -168 c0 -23 -13 -31 -139 -86 l-138 -61 12 54 c7 30 14 55 16 57 2 2 56 21 119 42 120 41 130 40 130 -6z m-365 -132 c-12 -57 -29 -72 -39 -34 -3 13 -9 32 -13 42 -4 11 -3 15 5 10 6 -4 19 2 29 13 28 30 31 25 18 -31z m6215 -112 c0 -2 -34 -84 -76 -182 -41 -98 -89 -212 -106 -252 l-31 -74 -77 184 c-43 101 -91 216 -108 256 l-31 72 214 0 c118 0 215 -2 215 -4z"/>
 <path d="M7434 4493 c-34 -7 -66 -47 -66 -85 0 -42 -18 1 266 -621 307 -673 287 -634 342 -659 55 -24 111 -18 153 17 20 18 101 184 304 628 152 332 277 613 277 626 0 65 -59 106 -136 94 -50 -8 -82 -51 -144 -196 l-55 -127 -340 0 -341 0 -54 127 c-31 74 -67 141 -85 159 -30 32 -76 46 -121 37z m774 -710 c-43 -104 -100 -237 -125 -296 -25 -60 -49 -105 -53 -100 -11 11 -240 558 -240 572 0 8 74 11 249 11 l249 0 -80 -187z"/>
 <path d="M252 2526 c-39 -87 -41 -323 -3 -496 12 -52 73 -250 137 -440 165 -494 203 -662 204 -887 0 -97 1 -102 25 -122 61 -47 324 -75 486 -51 126 18 119 8 119 166 l0 134 -102 103 c-105 104 -151 170 -195 277 -29 73 -53 192 -53 265 0 71 24 194 50 251 11 26 20 48 20 50 0 1 -60 55 -133 118 -231 199 -405 401 -507 588 -35 65 -37 67 -48 44z m750 -1886 c228 -26 218 -80 -15 -80 -112 0 -295 23 -329 41 -26 14 -18 33 18 40 47 10 232 10 326 -1z"/>
 <path d="M1055 1599 c-49 -154 -27 -329 59 -484 58 -103 187 -232 275 -274 l70 -34 7 -64 c8 -80 -3 -206 -24 -257 l-16 -39 32 -27 c45 -37 182 -84 221 -75 17 4 31 12 31 18 0 7 14 47 30 89 16 42 38 118 47 167 14 74 20 91 35 91 10 0 18 -6 18 -14 0 -8 12 -103 26 -212 14 -110 26 -209 26 -221 1 -39 24 -48 117 -47 47 1 97 7 111 12 18 7 -5 9 -82 5 -72 -4 -108 -3 -108 4 0 16 37 23 132 23 57 0 88 -4 90 -12 2 -6 9 -9 15 -5 6 4 13 75 17 179 8 203 16 298 25 298 4 0 24 -40 44 -88 21 -49 65 -130 100 -182 34 -52 68 -104 75 -117 20 -35 52 -29 136 28 98 65 142 127 103 142 -29 11 -100 197 -112 294 l-6 48 79 58 c43 31 91 70 105 85 l27 28 -132 28 c-549 116 -1060 318 -1436 568 -56 37 -104 68 -107 68 -2 0 -16 -36 -30 -81z m1590 -1154 c-49 -41 -178 -125 -184 -120 -8 8 27 39 108 94 78 54 130 71 76 26z m-1082 -26 c85 -30 127 -53 116 -63 -13 -13 -229 67 -229 85 0 15 25 10 113 -22z"/>
 </g>
<g id="layer102" fill="#c91b22" stroke="none">
 <path d="M1829 5146 c-129 -45 -288 -153 -466 -317 -103 -95 -267 -266 -358 -375 -28 -32 -56 -65 -63 -73 -7 -7 -57 -73 -112 -146 -199 -266 -333 -493 -413 -700 -50 -130 -98 -285 -92 -296 4 -5 -1 -9 -9 -9 -9 0 -16 -4 -16 -10 0 -6 29 -10 68 -10 77 0 96 -12 105 -65 3 -16 12 -51 21 -77 8 -27 12 -48 8 -48 -5 0 -16 25 -27 55 l-18 55 -46 0 c-64 0 -122 -11 -115 -21 3 -5 34 -9 70 -9 73 0 72 1 98 -100 8 -30 35 -125 61 -210 51 -173 103 -353 139 -480 13 -46 28 -86 33 -87 11 -4 40 168 53 307 11 117 27 268 41 380 11 81 23 208 35 350 8 92 16 105 25 35 4 -33 12 -96 19 -140 6 -44 15 -114 20 -155 7 -65 33 -265 70 -550 22 -164 30 -170 54 -38 9 51 23 129 31 173 17 94 65 386 76 465 4 30 14 95 23 144 9 49 16 99 16 112 0 55 26 10 65 -113 3 -9 39 -13 117 -15 l113 -3 31 -50 c59 -92 28 -85 349 -85 l285 0 11 -27 c35 -89 82 -224 90 -258 6 -22 32 -96 59 -165 64 -166 104 -273 125 -338 9 -28 20 -50 25 -47 8 5 25 74 21 89 -1 4 2 13 7 20 5 6 12 29 16 51 4 22 11 60 16 85 31 145 40 192 45 236 3 27 14 81 24 119 10 39 45 202 77 363 32 160 62 292 66 292 10 0 19 -53 44 -249 3 -24 17 -110 30 -190 14 -80 29 -180 34 -221 22 -191 25 -190 90 35 5 17 14 50 20 75 7 25 20 68 30 95 10 28 33 102 51 165 34 118 45 144 53 119 24 -79 37 -130 42 -154 12 -65 11 -65 164 -65 76 0 145 3 154 6 40 15 -6 24 -130 24 l-135 0 -15 35 c-18 44 -19 61 -1 46 16 -13 286 -4 302 10 6 6 6 9 0 9 -6 0 -10 21 -11 48 -3 137 -136 539 -273 823 -290 603 -629 984 -960 1083 -86 25 -278 21 -362 -8z m97 -942 c201 -240 306 -556 317 -957 l3 -118 -18 61 c-16 51 -22 60 -42 60 -23 0 -23 3 -29 128 -13 289 -117 597 -288 855 -38 57 -38 58 -10 38 16 -11 46 -42 67 -67z m-448 -811 c-27 -2 -69 -2 -95 0 -27 2 -5 3 47 3 52 0 74 -1 48 -3z m1712 -176 c22 -4 21 -5 -4 -4 -17 1 -31 9 -33 17 -3 10 -2 11 4 4 4 -7 19 -14 33 -17z m-2650 -300 c6 -21 9 -41 7 -44 -5 -4 -22 47 -44 127 -7 27 24 -44 37 -83z m1905 -209 c-12 -57 -29 -72 -39 -34 -3 13 -9 32 -13 42 -4 11 -3 15 5 10 6 -4 19 2 29 13 28 30 31 25 18 -31z"/>
 <path d="M3667 3071 c-21 -5 -48 -18 -60 -30 l-22 -22 0 -565 0 -566 28 -24 28 -24 369 0 369 0 20 26 c29 37 28 95 -3 131 l-24 28 -286 3 -286 3 0 165 0 164 268 0 c147 0 272 4 278 8 46 30 43 146 -5 169 -9 4 -134 9 -278 11 l-263 3 0 170 0 169 289 0 290 0 20 26 c29 37 28 95 -3 131 l-24 28 -334 2 c-183 1 -350 -2 -371 -6z"/>
 <path d="M4690 3070 c-19 -5 -45 -20 -57 -35 l-23 -26 0 -554 0 -553 26 -31 c24 -29 31 -31 87 -31 65 1 86 10 105 47 9 16 12 157 12 507 l0 486 280 0 c267 0 281 1 300 20 15 15 20 33 20 73 0 45 -4 58 -26 78 l-26 24 -331 2 c-183 1 -348 -2 -367 -7z"/>
 <path d="M5677 3071 c-21 -5 -48 -18 -60 -30 l-22 -22 0 -565 0 -566 28 -24 28 -24 369 0 369 0 20 26 c29 37 28 95 -3 131 l-24 28 -286 3 -286 3 0 165 0 164 268 0 c147 0 272 4 278 8 46 30 43 146 -5 169 -9 4 -134 9 -278 11 l-263 3 0 170 0 169 289 0 290 0 20 26 c29 37 28 95 -3 131 l-24 28 -334 2 c-183 1 -350 -2 -371 -6z"/>
 <path d="M6659 3061 l-24 -19 -3 -564 c-1 -309 0 -573 3 -585 10 -42 44 -63 101 -63 48 0 54 3 90 43 22 23 172 215 334 426 l295 383 5 -407 5 -407 24 -19 c36 -30 124 -27 156 6 l25 24 0 574 c0 566 0 575 -21 601 -17 22 -28 26 -73 26 -37 0 -61 -6 -78 -19 -13 -11 -163 -198 -333 -416 l-310 -397 -5 390 -5 390 -24 26 c-21 22 -33 26 -82 26 -41 0 -63 -5 -80 -19z"/>
 <path d="M7882 3073 c-17 -7 -42 -57 -42 -83 0 -12 110 -265 245 -563 183 -405 253 -549 275 -569 25 -23 40 -28 81 -28 66 0 104 21 130 71 11 23 124 269 252 548 250 548 258 572 208 612 -16 13 -39 19 -78 19 -74 0 -96 -24 -159 -172 l-49 -118 -298 0 -297 0 -11 28 c-35 93 -97 220 -116 240 -18 17 -33 22 -75 21 -29 0 -59 -3 -66 -6z m778 -477 c0 -2 -34 -84 -76 -182 -41 -98 -89 -212 -106 -252 l-31 -74 -77 184 c-43 101 -91 216 -108 256 l-31 72 214 0 c118 0 215 -2 215 -4z"/>
 </g>
<g id="layer103" fill="#606060" stroke="none">
 <path d="M826 4118 c-9 -42 -16 -102 -25 -208 -44 -506 -62 -719 -71 -800 -5 -52 -12 -133 -16 -180 -3 -47 -7 -103 -9 -125 -2 -22 -7 -77 -11 -122 -4 -45 -11 -80 -15 -77 -5 3 -9 18 -9 35 0 16 -5 29 -12 29 -6 0 -8 3 -5 6 3 4 1 16 -5 28 -7 11 -12 28 -13 36 -1 15 -21 80 -32 110 -7 18 -6 13 -22 70 -7 25 -17 53 -23 64 -10 19 -19 51 -20 74 -1 6 -6 12 -11 12 -5 0 -7 7 -4 15 4 8 2 17 -4 20 -5 4 -7 10 -4 15 3 5 -6 34 -19 64 l-25 56 -63 0 c-35 0 -73 -3 -85 -6 -45 -12 -22 -24 45 -24 77 0 96 -12 105 -65 3 -16 12 -51 21 -77 8 -27 12 -48 8 -48 -5 0 -16 25 -27 55 l-18 55 -46 0 c-64 0 -122 -11 -115 -21 3 -5 34 -9 70 -9 73 0 72 1 98 -100 8 -30 35 -125 61 -210 51 -173 103 -353 139 -480 13 -46 28 -86 33 -87 11 -4 40 168 53 307 11 117 27 268 41 380 11 81 23 208 35 350 8 92 16 105 25 35 4 -33 12 -96 19 -140 6 -44 15 -114 20 -155 7 -65 33 -265 70 -550 22 -164 30 -170 54 -37 9 50 23 128 31 172 17 94 65 386 76 465 4 30 14 95 23 144 9 49 16 99 16 112 0 55 26 10 65 -113 3 -9 39 -13 117 -15 l113 -3 31 -50 c59 -92 28 -85 349 -85 l285 0 11 -27 c35 -89 82 -224 90 -258 6 -22 32 -96 59 -165 64 -166 104 -273 125 -338 9 -28 20 -50 25 -47 8 5 25 74 21 89 -1 4 2 13 7 20 5 6 12 29 16 51 4 22 11 60 16 85 31 145 40 192 45 236 3 27 14 81 24 119 10 39 45 202 77 363 32 160 62 292 66 292 10 0 19 -53 44 -249 3 -24 17 -110 30 -190 14 -80 29 -180 34 -221 22 -191 25 -190 90 35 5 17 14 50 20 75 7 25 20 68 30 95 10 28 33 102 51 165 34 118 45 144 53 119 24 -79 37 -130 42 -154 12 -65 11 -65 164 -65 76 0 145 3 154 6 40 15 -6 24 -130 24 l-135 0 -15 35 c-18 45 -19 61 -1 46 13 -10 261 -6 296 5 35 11 -11 19 -137 24 -128 5 -137 6 -135 25 1 10 -3 27 -8 37 -5 10 -12 37 -15 60 -3 24 -12 60 -20 81 -8 20 -14 48 -14 62 0 33 -20 75 -36 75 -7 0 -18 -19 -24 -42 -6 -24 -22 -72 -35 -108 -12 -36 -31 -90 -40 -120 -10 -30 -23 -71 -30 -90 -8 -19 -22 -63 -32 -97 -10 -35 -21 -63 -25 -63 -5 0 -8 24 -8 53 0 28 -5 70 -10 92 -9 38 -34 224 -50 370 -4 39 -12 99 -18 135 -6 36 -19 127 -28 203 -12 97 -21 137 -30 137 -14 0 -20 -14 -29 -75 -4 -22 -13 -62 -20 -90 -7 -27 -20 -88 -30 -135 -9 -47 -28 -130 -41 -185 -23 -97 -33 -147 -55 -269 -5 -33 -12 -63 -15 -67 -2 -4 -9 -29 -14 -56 -5 -26 -19 -91 -30 -143 -25 -113 -38 -181 -45 -235 -17 -120 -35 -143 -55 -68 -6 26 -23 80 -36 118 -14 39 -43 124 -65 190 -21 65 -43 121 -47 125 -4 3 -15 30 -25 61 -16 53 -19 57 -55 63 -20 3 -154 6 -298 6 l-260 0 -42 65 -41 65 -93 0 c-93 0 -120 7 -124 32 -4 23 -113 332 -124 350 -5 10 -10 25 -10 34 0 8 -5 24 -11 35 -15 29 -39 6 -39 -37 0 -19 -4 -53 -10 -76 -5 -24 -14 -74 -20 -113 -27 -183 -52 -345 -60 -390 -5 -27 -12 -76 -16 -108 -3 -32 -7 -57 -10 -55 -5 5 -49 297 -84 553 -24 181 -41 295 -50 335 -5 25 -9 63 -10 86 0 75 -33 135 -44 82z m-286 -1201 c6 -21 9 -41 7 -44 -5 -4 -22 47 -44 127 -7 27 24 -44 37 -83z"/>
 </g>
<g id="layer104" fill="#b3b3b3" stroke="none">
 <path d="M826 4113 c-3 -16 -11 -82 -16 -148 -6 -66 -20 -221 -30 -345 -11 -124 -34 -382 -50 -575 -16 -192 -33 -377 -38 -410 l-7 -60 -27 85 c-15 47 -32 105 -39 130 -6 25 -15 54 -20 65 -15 34 -86 258 -94 295 -4 19 -14 47 -21 63 -14 25 -19 27 -77 27 -34 0 -72 -3 -84 -6 -45 -12 -22 -24 45 -24 77 0 96 -12 105 -65 3 -16 12 -51 21 -77 8 -27 12 -48 8 -48 -5 0 -16 25 -27 55 l-18 55 -46 0 c-64 0 -122 -11 -115 -21 3 -5 34 -9 70 -9 73 0 72 1 98 -100 8 -30 35 -125 61 -210 51 -173 103 -353 139 -480 13 -46 28 -86 33 -87 11 -4 40 168 53 307 11 116 27 267 41 380 11 84 25 219 38 375 7 84 16 84 25 0 3 -27 10 -86 16 -130 6 -44 15 -114 20 -155 7 -65 33 -265 70 -550 22 -164 30 -170 54 -37 9 50 23 128 31 172 17 94 65 386 76 465 4 30 14 95 23 144 9 49 16 99 16 112 0 55 26 10 65 -113 3 -9 39 -13 117 -15 l113 -3 31 -50 c59 -92 28 -85 349 -85 l285 0 11 -27 c27 -70 81 -221 89 -248 7 -29 40 -117 110 -305 18 -47 45 -124 62 -173 16 -48 33 -85 38 -82 8 5 25 74 21 89 -1 4 2 13 7 20 5 6 12 29 16 51 4 22 11 60 16 85 31 145 40 192 45 236 3 27 14 81 24 119 10 39 45 202 77 363 32 160 62 292 66 292 10 0 19 -53 44 -249 3 -24 17 -110 30 -190 14 -80 29 -180 34 -221 22 -191 25 -190 90 35 5 17 14 50 20 75 7 25 20 68 30 95 10 28 33 102 51 165 34 118 45 144 53 119 24 -79 37 -130 42 -154 12 -65 12 -65 157 -65 136 0 181 6 171 21 -3 5 -66 9 -140 9 l-135 0 -15 35 c-18 45 -19 61 -1 46 13 -10 261 -6 296 5 35 11 -11 19 -137 24 -127 5 -137 6 -140 25 -1 11 -9 46 -17 78 -8 31 -22 85 -31 120 -25 102 -29 112 -39 110 -6 -1 -16 -21 -22 -45 -7 -24 -17 -52 -22 -63 -5 -11 -28 -81 -51 -155 -23 -74 -48 -151 -55 -170 -8 -19 -16 -47 -19 -62 -4 -16 -11 -28 -16 -28 -12 0 -16 20 -28 155 -9 99 -35 300 -77 597 -8 59 -15 122 -15 140 0 41 -18 108 -29 108 -4 0 -18 -51 -30 -112 -12 -62 -26 -129 -32 -148 -8 -31 -23 -98 -50 -225 -4 -22 -15 -69 -23 -105 -8 -36 -21 -99 -30 -140 -8 -41 -22 -106 -31 -145 -29 -135 -77 -360 -80 -385 -10 -63 -21 -104 -31 -107 -6 -2 -25 43 -43 99 -40 125 -51 158 -61 178 -4 8 -17 49 -30 90 -12 41 -28 86 -36 100 -7 14 -20 48 -29 76 -15 49 -18 52 -57 58 -22 4 -156 6 -297 6 l-256 -1 -39 58 c-21 32 -43 61 -50 65 -6 4 -51 8 -101 8 -49 0 -95 4 -100 8 -6 4 -17 27 -24 52 -7 25 -19 59 -26 75 -7 17 -15 39 -18 50 -7 23 -34 101 -46 130 -5 11 -17 47 -28 79 -11 33 -24 61 -29 63 -9 3 -44 -181 -79 -417 -8 -58 -22 -143 -30 -190 -8 -47 -17 -106 -20 -132 -6 -47 -20 -65 -22 -30 -2 39 -33 258 -39 275 -3 10 -9 51 -14 90 -7 65 -38 277 -60 417 -5 30 -13 91 -19 135 -17 124 -21 145 -31 145 -4 0 -11 -12 -14 -27z m2268 -778 c5 -20 4 -27 -3 -20 -5 6 -12 23 -15 39 -7 37 9 21 18 -19z m-1666 -52 c-21 -2 -55 -2 -75 0 -21 2 -4 4 37 4 41 0 58 -2 38 -4z m-888 -366 c6 -21 9 -41 7 -44 -5 -4 -22 47 -44 127 -7 27 24 -44 37 -83z"/>
 </g>
<g id="layer105" fill="#fafafa" stroke="none">
 <path d="M817 4020 c-3 -8 -8 -58 -11 -110 -4 -52 -8 -113 -10 -135 -3 -22 -10 -101 -16 -175 -6 -74 -13 -153 -15 -175 -3 -22 -9 -98 -15 -170 -19 -240 -21 -269 -41 -484 -10 -118 -19 -234 -19 -258 0 -31 -4 -43 -14 -43 -10 0 -25 35 -46 103 -17 56 -35 113 -40 127 -5 14 -28 86 -50 160 -83 267 -84 270 -119 270 -14 0 -51 -3 -81 -7 -49 -6 -52 -8 -25 -14 17 -4 49 -7 72 -8 49 -1 60 -16 86 -116 9 -33 23 -85 32 -115 19 -65 35 -120 38 -137 2 -7 6 -16 10 -19 4 -4 7 -16 7 -26 0 -10 9 -43 19 -73 11 -30 17 -55 15 -55 -3 0 0 -8 5 -18 6 -11 12 -30 15 -43 2 -13 14 -60 26 -104 12 -44 28 -100 34 -124 7 -25 17 -46 22 -48 12 -4 41 164 54 307 11 116 27 267 41 380 18 138 33 313 38 426 2 47 18 15 25 -48 3 -35 11 -97 17 -138 5 -41 14 -109 19 -150 17 -156 76 -597 87 -653 11 -60 23 -19 67 233 22 126 65 390 76 465 4 33 15 100 24 149 9 49 16 99 16 112 0 55 26 10 65 -113 3 -9 39 -13 117 -15 l113 -3 31 -50 c59 -92 28 -85 349 -85 l285 0 11 -27 c21 -53 80 -218 124 -343 24 -69 58 -163 75 -210 18 -47 45 -124 62 -173 16 -48 33 -85 38 -82 8 5 25 74 21 89 -1 4 2 13 7 20 5 6 12 29 16 51 4 22 11 60 16 85 31 144 40 192 45 236 3 27 15 83 25 124 17 65 108 509 125 610 3 19 8 37 11 39 10 11 24 -25 24 -64 1 -22 5 -60 10 -85 6 -25 13 -67 16 -95 3 -27 17 -115 31 -195 13 -80 28 -179 33 -220 22 -191 25 -190 90 35 5 17 14 50 20 75 7 25 20 68 30 95 10 28 34 104 53 170 19 65 39 121 45 123 9 3 40 -101 48 -161 2 -15 9 -37 15 -49 11 -20 16 -21 117 -14 58 3 128 6 156 6 37 0 47 3 36 10 -8 5 -72 10 -142 10 -119 0 -128 1 -138 21 -11 20 -61 210 -74 282 -7 36 -23 50 -30 25 -39 -134 -171 -517 -176 -511 -4 4 -12 51 -19 103 -6 52 -16 127 -21 165 -6 39 -19 138 -30 220 -11 83 -25 184 -30 225 -6 41 -13 93 -15 115 -3 22 -8 63 -12 90 -3 28 -9 57 -14 65 -10 18 -9 21 -38 -115 -12 -55 -26 -116 -31 -135 -5 -19 -23 -102 -40 -185 -17 -82 -40 -188 -50 -235 -23 -101 -66 -304 -113 -525 -19 -88 -37 -159 -42 -158 -4 1 -21 39 -37 85 -40 113 -99 284 -138 398 -18 52 -36 99 -41 104 -4 5 -136 8 -298 7 l-290 -2 -46 70 -45 71 -99 0 c-67 0 -102 4 -108 13 -5 6 -35 86 -66 177 -86 249 -92 265 -102 263 -6 -1 -13 -22 -16 -45 -13 -82 -50 -323 -65 -413 -8 -49 -17 -112 -20 -139 -3 -27 -10 -60 -15 -73 -5 -13 -9 -41 -9 -61 0 -20 -4 -43 -9 -51 -12 -18 -18 2 -30 104 -6 44 -14 109 -20 145 -6 36 -17 119 -26 185 -9 66 -20 143 -25 170 -5 28 -14 86 -20 130 -6 44 -12 91 -14 105 -3 14 -9 64 -16 113 -12 97 -25 141 -33 117z"/>
 </g>

</svg>